G04 #@! TF.GenerationSoftware,KiCad,Pcbnew,(5.0.2)-1*
G04 #@! TF.CreationDate,2020-07-16T18:14:53-07:00*
G04 #@! TF.ProjectId,Peterson_SerialIO,50657465-7273-46f6-9e5f-53657269616c,rev?*
G04 #@! TF.SameCoordinates,Original*
G04 #@! TF.FileFunction,Other,User*
%FSLAX46Y46*%
G04 Gerber Fmt 4.6, Leading zero omitted, Abs format (unit mm)*
G04 Created by KiCad (PCBNEW (5.0.2)-1) date 7/16/2020 6:14:53 PM*
%MOMM*%
%LPD*%
G01*
G04 APERTURE LIST*
%ADD10C,0.300000*%
%ADD11C,0.200000*%
G04 APERTURE END LIST*
D10*
X39712880Y-74137451D02*
X40070022Y-75137451D01*
X40427165Y-74137451D01*
X40998594Y-74566022D02*
X42141451Y-74566022D01*
X43498594Y-74137451D02*
X43498594Y-75351737D01*
X43427165Y-75494594D01*
X43355737Y-75566022D01*
X43212880Y-75637451D01*
X42998594Y-75637451D01*
X42855737Y-75566022D01*
X43498594Y-75066022D02*
X43355737Y-75137451D01*
X43070022Y-75137451D01*
X42927165Y-75066022D01*
X42855737Y-74994594D01*
X42784308Y-74851737D01*
X42784308Y-74423165D01*
X42855737Y-74280308D01*
X42927165Y-74208880D01*
X43070022Y-74137451D01*
X43355737Y-74137451D01*
X43498594Y-74208880D01*
X44212880Y-75137451D02*
X44212880Y-74137451D01*
X44212880Y-74423165D02*
X44284308Y-74280308D01*
X44355737Y-74208880D01*
X44498594Y-74137451D01*
X44641451Y-74137451D01*
X45355737Y-75137451D02*
X45212880Y-75066022D01*
X45141451Y-74994594D01*
X45070022Y-74851737D01*
X45070022Y-74423165D01*
X45141451Y-74280308D01*
X45212880Y-74208880D01*
X45355737Y-74137451D01*
X45570022Y-74137451D01*
X45712880Y-74208880D01*
X45784308Y-74280308D01*
X45855737Y-74423165D01*
X45855737Y-74851737D01*
X45784308Y-74994594D01*
X45712880Y-75066022D01*
X45570022Y-75137451D01*
X45355737Y-75137451D01*
X46712880Y-75137451D02*
X46570022Y-75066022D01*
X46498594Y-74994594D01*
X46427165Y-74851737D01*
X46427165Y-74423165D01*
X46498594Y-74280308D01*
X46570022Y-74208880D01*
X46712880Y-74137451D01*
X46927165Y-74137451D01*
X47070022Y-74208880D01*
X47141451Y-74280308D01*
X47212880Y-74423165D01*
X47212880Y-74851737D01*
X47141451Y-74994594D01*
X47070022Y-75066022D01*
X46927165Y-75137451D01*
X46712880Y-75137451D01*
X47712880Y-74137451D02*
X48070022Y-75137451D01*
X48427165Y-74137451D01*
X49570022Y-75066022D02*
X49427165Y-75137451D01*
X49141451Y-75137451D01*
X48998594Y-75066022D01*
X48927165Y-74923165D01*
X48927165Y-74351737D01*
X48998594Y-74208880D01*
X49141451Y-74137451D01*
X49427165Y-74137451D01*
X49570022Y-74208880D01*
X49641451Y-74351737D01*
X49641451Y-74494594D01*
X48927165Y-74637451D01*
D11*
X17800000Y-122000000D02*
X280000000Y-122000000D01*
X17800000Y-76000000D02*
X280000000Y-76000000D01*
X17800000Y-122000000D02*
X17800000Y-76000000D01*
X280000000Y-122000000D02*
X280000000Y-76000000D01*
X280000000Y-76000000D02*
X280000000Y-30000000D01*
X17800000Y-76000000D02*
X280000000Y-76000000D01*
X17800000Y-76000000D02*
X17800000Y-30000000D01*
X17800000Y-30000000D02*
X280000000Y-30000000D01*
M02*
