G04 #@! TF.GenerationSoftware,KiCad,Pcbnew,(5.0.2)-1*
G04 #@! TF.CreationDate,2020-08-31T13:18:20-07:00*
G04 #@! TF.ProjectId,Peterson_SerialIO,50657465-7273-46f6-9e5f-53657269616c,rev?*
G04 #@! TF.SameCoordinates,Original*
G04 #@! TF.FileFunction,Paste,Bot*
G04 #@! TF.FilePolarity,Positive*
%FSLAX46Y46*%
G04 Gerber Fmt 4.6, Leading zero omitted, Abs format (unit mm)*
G04 Created by KiCad (PCBNEW (5.0.2)-1) date 8/31/2020 1:18:20 PM*
%MOMM*%
%LPD*%
G01*
G04 APERTURE LIST*
%ADD10R,0.455000X1.400000*%
%ADD11R,0.889000X0.889000*%
%ADD12R,0.900000X1.200000*%
%ADD13C,1.651000*%
%ADD14R,1.651000X1.651000*%
%ADD15R,0.508000X1.143000*%
%ADD16C,1.676400*%
%ADD17C,3.302000*%
%ADD18C,0.100000*%
%ADD19C,0.875000*%
%ADD20R,1.200000X0.900000*%
%ADD21R,0.889000X1.270000*%
%ADD22R,1.000000X0.650000*%
%ADD23R,0.998220X0.650000*%
G04 APERTURE END LIST*
D10*
G04 #@! TO.C,RN2*
X188908060Y-108463880D03*
X188908060Y-111663880D03*
X187638060Y-108463880D03*
X187638060Y-111663880D03*
X186368060Y-108463880D03*
X186368060Y-111663880D03*
X185098060Y-108463880D03*
X185098060Y-111663880D03*
G04 #@! TD*
G04 #@! TO.C,RN5*
X184904380Y-92956780D03*
X184904380Y-89756780D03*
X186174380Y-92956780D03*
X186174380Y-89756780D03*
X187444380Y-92956780D03*
X187444380Y-89756780D03*
X188714380Y-92956780D03*
X188714380Y-89756780D03*
G04 #@! TD*
G04 #@! TO.C,RN12*
X237202980Y-93083780D03*
X237202980Y-89883780D03*
X238472980Y-93083780D03*
X238472980Y-89883780D03*
X239742980Y-93083780D03*
X239742980Y-89883780D03*
X241012980Y-93083780D03*
X241012980Y-89883780D03*
G04 #@! TD*
G04 #@! TO.C,RN13*
X254850900Y-93294600D03*
X254850900Y-90094600D03*
X256120900Y-93294600D03*
X256120900Y-90094600D03*
X257390900Y-93294600D03*
X257390900Y-90094600D03*
X258660900Y-93294600D03*
X258660900Y-90094600D03*
G04 #@! TD*
G04 #@! TO.C,RN9*
X213029800Y-109167460D03*
X213029800Y-112367460D03*
X211759800Y-109167460D03*
X211759800Y-112367460D03*
X210489800Y-109167460D03*
X210489800Y-112367460D03*
X209219800Y-109167460D03*
X209219800Y-112367460D03*
G04 #@! TD*
G04 #@! TO.C,RN1*
X164838380Y-110107260D03*
X164838380Y-113307260D03*
X163568380Y-110107260D03*
X163568380Y-113307260D03*
X162298380Y-110107260D03*
X162298380Y-113307260D03*
X161028380Y-110107260D03*
X161028380Y-113307260D03*
G04 #@! TD*
G04 #@! TO.C,RN6*
X201259440Y-93099020D03*
X201259440Y-89899020D03*
X202529440Y-93099020D03*
X202529440Y-89899020D03*
X203799440Y-93099020D03*
X203799440Y-89899020D03*
X205069440Y-93099020D03*
X205069440Y-89899020D03*
G04 #@! TD*
G04 #@! TO.C,RN8*
X151843740Y-93728940D03*
X151843740Y-90528940D03*
X153113740Y-93728940D03*
X153113740Y-90528940D03*
X154383740Y-93728940D03*
X154383740Y-90528940D03*
X155653740Y-93728940D03*
X155653740Y-90528940D03*
G04 #@! TD*
G04 #@! TO.C,RN11*
X232205000Y-108900000D03*
X232205000Y-112100000D03*
X230935000Y-108900000D03*
X230935000Y-112100000D03*
X229665000Y-108900000D03*
X229665000Y-112100000D03*
X228395000Y-108900000D03*
X228395000Y-112100000D03*
G04 #@! TD*
G04 #@! TO.C,RN10*
X225505000Y-108400000D03*
X225505000Y-111600000D03*
X224235000Y-108400000D03*
X224235000Y-111600000D03*
X222965000Y-108400000D03*
X222965000Y-111600000D03*
X221695000Y-108400000D03*
X221695000Y-111600000D03*
G04 #@! TD*
G04 #@! TO.C,RN7*
X157746700Y-109896440D03*
X157746700Y-113096440D03*
X156476700Y-109896440D03*
X156476700Y-113096440D03*
X155206700Y-109896440D03*
X155206700Y-113096440D03*
X153936700Y-109896440D03*
X153936700Y-113096440D03*
G04 #@! TD*
G04 #@! TO.C,RN4*
X167383460Y-93162520D03*
X167383460Y-89962520D03*
X168653460Y-93162520D03*
X168653460Y-89962520D03*
X169923460Y-93162520D03*
X169923460Y-89962520D03*
X171193460Y-93162520D03*
X171193460Y-89962520D03*
G04 #@! TD*
G04 #@! TO.C,RN3*
X195004060Y-108423240D03*
X195004060Y-111623240D03*
X193734060Y-108423240D03*
X193734060Y-111623240D03*
X192464060Y-108423240D03*
X192464060Y-111623240D03*
X191194060Y-108423240D03*
X191194060Y-111623240D03*
G04 #@! TD*
G04 #@! TO.C,RN29*
X48399700Y-92311620D03*
X48399700Y-89111620D03*
X49669700Y-92311620D03*
X49669700Y-89111620D03*
X50939700Y-92311620D03*
X50939700Y-89111620D03*
X52209700Y-92311620D03*
X52209700Y-89111620D03*
G04 #@! TD*
G04 #@! TO.C,RN17*
X92801440Y-109229840D03*
X92801440Y-112429840D03*
X91531440Y-109229840D03*
X91531440Y-112429840D03*
X90261440Y-109229840D03*
X90261440Y-112429840D03*
X88991440Y-109229840D03*
X88991440Y-112429840D03*
G04 #@! TD*
G04 #@! TO.C,RN31*
X27078940Y-109350340D03*
X27078940Y-112550340D03*
X25808940Y-109350340D03*
X25808940Y-112550340D03*
X24538940Y-109350340D03*
X24538940Y-112550340D03*
X23268940Y-109350340D03*
X23268940Y-112550340D03*
G04 #@! TD*
G04 #@! TO.C,RN28*
X32138620Y-92563080D03*
X32138620Y-89363080D03*
X33408620Y-92563080D03*
X33408620Y-89363080D03*
X34678620Y-92563080D03*
X34678620Y-89363080D03*
X35948620Y-92563080D03*
X35948620Y-89363080D03*
G04 #@! TD*
G04 #@! TO.C,RN18*
X117370860Y-109971520D03*
X117370860Y-113171520D03*
X116100860Y-109971520D03*
X116100860Y-113171520D03*
X114830860Y-109971520D03*
X114830860Y-113171520D03*
X113560860Y-109971520D03*
X113560860Y-113171520D03*
G04 #@! TD*
G04 #@! TO.C,RN20*
X100467160Y-93507960D03*
X100467160Y-90307960D03*
X101737160Y-93507960D03*
X101737160Y-90307960D03*
X103007160Y-93507960D03*
X103007160Y-90307960D03*
X104277160Y-93507960D03*
X104277160Y-90307960D03*
G04 #@! TD*
G04 #@! TO.C,RN25*
X34168080Y-109314780D03*
X34168080Y-112514780D03*
X32898080Y-109314780D03*
X32898080Y-112514780D03*
X31628080Y-109314780D03*
X31628080Y-112514780D03*
X30358080Y-109314780D03*
X30358080Y-112514780D03*
G04 #@! TD*
G04 #@! TO.C,RN21*
X116174520Y-93507960D03*
X116174520Y-90307960D03*
X117444520Y-93507960D03*
X117444520Y-90307960D03*
X118714520Y-93507960D03*
X118714520Y-90307960D03*
X119984520Y-93507960D03*
X119984520Y-90307960D03*
G04 #@! TD*
G04 #@! TO.C,RN19*
X123972320Y-109781020D03*
X123972320Y-112981020D03*
X122702320Y-109781020D03*
X122702320Y-112981020D03*
X121432320Y-109781020D03*
X121432320Y-112981020D03*
X120162320Y-109781020D03*
X120162320Y-112981020D03*
G04 #@! TD*
G04 #@! TO.C,RN22*
X135793480Y-93660360D03*
X135793480Y-90460360D03*
X137063480Y-93660360D03*
X137063480Y-90460360D03*
X138333480Y-93660360D03*
X138333480Y-90460360D03*
X139603480Y-93660360D03*
X139603480Y-90460360D03*
G04 #@! TD*
G04 #@! TO.C,RN27*
X61874400Y-108319100D03*
X61874400Y-111519100D03*
X60604400Y-108319100D03*
X60604400Y-111519100D03*
X59334400Y-108319100D03*
X59334400Y-111519100D03*
X58064400Y-108319100D03*
X58064400Y-111519100D03*
G04 #@! TD*
G04 #@! TO.C,RN30*
X62910720Y-92479260D03*
X62910720Y-89279260D03*
X64180720Y-92479260D03*
X64180720Y-89279260D03*
X65450720Y-92479260D03*
X65450720Y-89279260D03*
X66720720Y-92479260D03*
X66720720Y-89279260D03*
G04 #@! TD*
G04 #@! TO.C,RN23*
X86075520Y-109229840D03*
X86075520Y-112429840D03*
X84805520Y-109229840D03*
X84805520Y-112429840D03*
X83535520Y-109229840D03*
X83535520Y-112429840D03*
X82265520Y-109229840D03*
X82265520Y-112429840D03*
G04 #@! TD*
G04 #@! TO.C,RN26*
X54864000Y-108123520D03*
X54864000Y-111323520D03*
X53594000Y-108123520D03*
X53594000Y-111323520D03*
X52324000Y-108123520D03*
X52324000Y-111323520D03*
X51054000Y-108123520D03*
X51054000Y-111323520D03*
G04 #@! TD*
G04 #@! TO.C,RN32*
X20797520Y-92062700D03*
X20797520Y-88862700D03*
X22067520Y-92062700D03*
X22067520Y-88862700D03*
X23337520Y-92062700D03*
X23337520Y-88862700D03*
X24607520Y-92062700D03*
X24607520Y-88862700D03*
G04 #@! TD*
G04 #@! TO.C,RN24*
X84373720Y-93431760D03*
X84373720Y-90231760D03*
X85643720Y-93431760D03*
X85643720Y-90231760D03*
X86913720Y-93431760D03*
X86913720Y-90231760D03*
X88183720Y-93431760D03*
X88183720Y-90231760D03*
G04 #@! TD*
G04 #@! TO.C,RN14*
X270126460Y-93205700D03*
X270126460Y-90005700D03*
X271396460Y-93205700D03*
X271396460Y-90005700D03*
X272666460Y-93205700D03*
X272666460Y-90005700D03*
X273936460Y-93205700D03*
X273936460Y-90005700D03*
G04 #@! TD*
G04 #@! TO.C,RN16*
X217617040Y-93165060D03*
X217617040Y-89965060D03*
X218887040Y-93165060D03*
X218887040Y-89965060D03*
X220157040Y-93165060D03*
X220157040Y-89965060D03*
X221427040Y-93165060D03*
X221427040Y-89965060D03*
G04 #@! TD*
G04 #@! TO.C,RN15*
X206999840Y-108999820D03*
X206999840Y-112199820D03*
X205729840Y-108999820D03*
X205729840Y-112199820D03*
X204459840Y-108999820D03*
X204459840Y-112199820D03*
X203189840Y-108999820D03*
X203189840Y-112199820D03*
G04 #@! TD*
G04 #@! TO.C,RN1*
X164838380Y-64107260D03*
X164838380Y-67307260D03*
X163568380Y-64107260D03*
X163568380Y-67307260D03*
X162298380Y-64107260D03*
X162298380Y-67307260D03*
X161028380Y-64107260D03*
X161028380Y-67307260D03*
G04 #@! TD*
G04 #@! TO.C,RN2*
X188908060Y-62463880D03*
X188908060Y-65663880D03*
X187638060Y-62463880D03*
X187638060Y-65663880D03*
X186368060Y-62463880D03*
X186368060Y-65663880D03*
X185098060Y-62463880D03*
X185098060Y-65663880D03*
G04 #@! TD*
G04 #@! TO.C,RN3*
X195004060Y-62423240D03*
X195004060Y-65623240D03*
X193734060Y-62423240D03*
X193734060Y-65623240D03*
X192464060Y-62423240D03*
X192464060Y-65623240D03*
X191194060Y-62423240D03*
X191194060Y-65623240D03*
G04 #@! TD*
G04 #@! TO.C,RN4*
X167383460Y-47162520D03*
X167383460Y-43962520D03*
X168653460Y-47162520D03*
X168653460Y-43962520D03*
X169923460Y-47162520D03*
X169923460Y-43962520D03*
X171193460Y-47162520D03*
X171193460Y-43962520D03*
G04 #@! TD*
G04 #@! TO.C,RN5*
X184904380Y-46956780D03*
X184904380Y-43756780D03*
X186174380Y-46956780D03*
X186174380Y-43756780D03*
X187444380Y-46956780D03*
X187444380Y-43756780D03*
X188714380Y-46956780D03*
X188714380Y-43756780D03*
G04 #@! TD*
G04 #@! TO.C,RN6*
X201259440Y-47099020D03*
X201259440Y-43899020D03*
X202529440Y-47099020D03*
X202529440Y-43899020D03*
X203799440Y-47099020D03*
X203799440Y-43899020D03*
X205069440Y-47099020D03*
X205069440Y-43899020D03*
G04 #@! TD*
G04 #@! TO.C,RN7*
X157746700Y-63896440D03*
X157746700Y-67096440D03*
X156476700Y-63896440D03*
X156476700Y-67096440D03*
X155206700Y-63896440D03*
X155206700Y-67096440D03*
X153936700Y-63896440D03*
X153936700Y-67096440D03*
G04 #@! TD*
G04 #@! TO.C,RN8*
X151843740Y-47728940D03*
X151843740Y-44528940D03*
X153113740Y-47728940D03*
X153113740Y-44528940D03*
X154383740Y-47728940D03*
X154383740Y-44528940D03*
X155653740Y-47728940D03*
X155653740Y-44528940D03*
G04 #@! TD*
G04 #@! TO.C,RN9*
X213029800Y-63167460D03*
X213029800Y-66367460D03*
X211759800Y-63167460D03*
X211759800Y-66367460D03*
X210489800Y-63167460D03*
X210489800Y-66367460D03*
X209219800Y-63167460D03*
X209219800Y-66367460D03*
G04 #@! TD*
G04 #@! TO.C,RN10*
X225505000Y-62400000D03*
X225505000Y-65600000D03*
X224235000Y-62400000D03*
X224235000Y-65600000D03*
X222965000Y-62400000D03*
X222965000Y-65600000D03*
X221695000Y-62400000D03*
X221695000Y-65600000D03*
G04 #@! TD*
G04 #@! TO.C,RN11*
X232205000Y-62900000D03*
X232205000Y-66100000D03*
X230935000Y-62900000D03*
X230935000Y-66100000D03*
X229665000Y-62900000D03*
X229665000Y-66100000D03*
X228395000Y-62900000D03*
X228395000Y-66100000D03*
G04 #@! TD*
G04 #@! TO.C,RN12*
X237202980Y-47083780D03*
X237202980Y-43883780D03*
X238472980Y-47083780D03*
X238472980Y-43883780D03*
X239742980Y-47083780D03*
X239742980Y-43883780D03*
X241012980Y-47083780D03*
X241012980Y-43883780D03*
G04 #@! TD*
G04 #@! TO.C,RN13*
X254850900Y-47294600D03*
X254850900Y-44094600D03*
X256120900Y-47294600D03*
X256120900Y-44094600D03*
X257390900Y-47294600D03*
X257390900Y-44094600D03*
X258660900Y-47294600D03*
X258660900Y-44094600D03*
G04 #@! TD*
G04 #@! TO.C,RN14*
X270126460Y-47205700D03*
X270126460Y-44005700D03*
X271396460Y-47205700D03*
X271396460Y-44005700D03*
X272666460Y-47205700D03*
X272666460Y-44005700D03*
X273936460Y-47205700D03*
X273936460Y-44005700D03*
G04 #@! TD*
G04 #@! TO.C,RN15*
X206999840Y-62999820D03*
X206999840Y-66199820D03*
X205729840Y-62999820D03*
X205729840Y-66199820D03*
X204459840Y-62999820D03*
X204459840Y-66199820D03*
X203189840Y-62999820D03*
X203189840Y-66199820D03*
G04 #@! TD*
G04 #@! TO.C,RN16*
X217617040Y-47165060D03*
X217617040Y-43965060D03*
X218887040Y-47165060D03*
X218887040Y-43965060D03*
X220157040Y-47165060D03*
X220157040Y-43965060D03*
X221427040Y-47165060D03*
X221427040Y-43965060D03*
G04 #@! TD*
G04 #@! TO.C,RN17*
X92801440Y-63229840D03*
X92801440Y-66429840D03*
X91531440Y-63229840D03*
X91531440Y-66429840D03*
X90261440Y-63229840D03*
X90261440Y-66429840D03*
X88991440Y-63229840D03*
X88991440Y-66429840D03*
G04 #@! TD*
G04 #@! TO.C,RN18*
X117370860Y-63971520D03*
X117370860Y-67171520D03*
X116100860Y-63971520D03*
X116100860Y-67171520D03*
X114830860Y-63971520D03*
X114830860Y-67171520D03*
X113560860Y-63971520D03*
X113560860Y-67171520D03*
G04 #@! TD*
G04 #@! TO.C,RN19*
X123972320Y-63781020D03*
X123972320Y-66981020D03*
X122702320Y-63781020D03*
X122702320Y-66981020D03*
X121432320Y-63781020D03*
X121432320Y-66981020D03*
X120162320Y-63781020D03*
X120162320Y-66981020D03*
G04 #@! TD*
G04 #@! TO.C,RN20*
X100467160Y-47507960D03*
X100467160Y-44307960D03*
X101737160Y-47507960D03*
X101737160Y-44307960D03*
X103007160Y-47507960D03*
X103007160Y-44307960D03*
X104277160Y-47507960D03*
X104277160Y-44307960D03*
G04 #@! TD*
G04 #@! TO.C,RN21*
X116174520Y-47507960D03*
X116174520Y-44307960D03*
X117444520Y-47507960D03*
X117444520Y-44307960D03*
X118714520Y-47507960D03*
X118714520Y-44307960D03*
X119984520Y-47507960D03*
X119984520Y-44307960D03*
G04 #@! TD*
G04 #@! TO.C,RN22*
X135793480Y-47660360D03*
X135793480Y-44460360D03*
X137063480Y-47660360D03*
X137063480Y-44460360D03*
X138333480Y-47660360D03*
X138333480Y-44460360D03*
X139603480Y-47660360D03*
X139603480Y-44460360D03*
G04 #@! TD*
G04 #@! TO.C,RN23*
X86075520Y-63229840D03*
X86075520Y-66429840D03*
X84805520Y-63229840D03*
X84805520Y-66429840D03*
X83535520Y-63229840D03*
X83535520Y-66429840D03*
X82265520Y-63229840D03*
X82265520Y-66429840D03*
G04 #@! TD*
G04 #@! TO.C,RN24*
X84373720Y-47431760D03*
X84373720Y-44231760D03*
X85643720Y-47431760D03*
X85643720Y-44231760D03*
X86913720Y-47431760D03*
X86913720Y-44231760D03*
X88183720Y-47431760D03*
X88183720Y-44231760D03*
G04 #@! TD*
G04 #@! TO.C,RN25*
X34168080Y-63314780D03*
X34168080Y-66514780D03*
X32898080Y-63314780D03*
X32898080Y-66514780D03*
X31628080Y-63314780D03*
X31628080Y-66514780D03*
X30358080Y-63314780D03*
X30358080Y-66514780D03*
G04 #@! TD*
G04 #@! TO.C,RN26*
X54864000Y-62123520D03*
X54864000Y-65323520D03*
X53594000Y-62123520D03*
X53594000Y-65323520D03*
X52324000Y-62123520D03*
X52324000Y-65323520D03*
X51054000Y-62123520D03*
X51054000Y-65323520D03*
G04 #@! TD*
G04 #@! TO.C,RN27*
X61874400Y-62319100D03*
X61874400Y-65519100D03*
X60604400Y-62319100D03*
X60604400Y-65519100D03*
X59334400Y-62319100D03*
X59334400Y-65519100D03*
X58064400Y-62319100D03*
X58064400Y-65519100D03*
G04 #@! TD*
G04 #@! TO.C,RN28*
X32138620Y-46563080D03*
X32138620Y-43363080D03*
X33408620Y-46563080D03*
X33408620Y-43363080D03*
X34678620Y-46563080D03*
X34678620Y-43363080D03*
X35948620Y-46563080D03*
X35948620Y-43363080D03*
G04 #@! TD*
G04 #@! TO.C,RN29*
X48399700Y-46311620D03*
X48399700Y-43111620D03*
X49669700Y-46311620D03*
X49669700Y-43111620D03*
X50939700Y-46311620D03*
X50939700Y-43111620D03*
X52209700Y-46311620D03*
X52209700Y-43111620D03*
G04 #@! TD*
G04 #@! TO.C,RN30*
X62910720Y-46479260D03*
X62910720Y-43279260D03*
X64180720Y-46479260D03*
X64180720Y-43279260D03*
X65450720Y-46479260D03*
X65450720Y-43279260D03*
X66720720Y-46479260D03*
X66720720Y-43279260D03*
G04 #@! TD*
G04 #@! TO.C,RN31*
X27078940Y-63350340D03*
X27078940Y-66550340D03*
X25808940Y-63350340D03*
X25808940Y-66550340D03*
X24538940Y-63350340D03*
X24538940Y-66550340D03*
X23268940Y-63350340D03*
X23268940Y-66550340D03*
G04 #@! TD*
G04 #@! TO.C,RN32*
X20797520Y-46062700D03*
X20797520Y-42862700D03*
X22067520Y-46062700D03*
X22067520Y-42862700D03*
X23337520Y-46062700D03*
X23337520Y-42862700D03*
X24607520Y-46062700D03*
X24607520Y-42862700D03*
G04 #@! TD*
D11*
G04 #@! TO.C,C51*
X98308160Y-91755560D03*
X96784160Y-91755560D03*
G04 #@! TD*
G04 #@! TO.C,C49*
X106812080Y-93752000D03*
X108336080Y-93752000D03*
G04 #@! TD*
G04 #@! TO.C,C43*
X133558280Y-91984160D03*
X132034280Y-91984160D03*
G04 #@! TD*
G04 #@! TO.C,C45*
X122588020Y-94417480D03*
X124112020Y-94417480D03*
G04 #@! TD*
G04 #@! TO.C,C46*
X124112020Y-91849540D03*
X122588020Y-91849540D03*
G04 #@! TD*
G04 #@! TO.C,C61*
X70488000Y-92750000D03*
X72012000Y-92750000D03*
G04 #@! TD*
G04 #@! TO.C,C44*
X132125720Y-94508920D03*
X133649720Y-94508920D03*
G04 #@! TD*
G04 #@! TO.C,C48*
X112590580Y-93777400D03*
X114114580Y-93777400D03*
G04 #@! TD*
G04 #@! TO.C,C60*
X90393520Y-94508920D03*
X91917520Y-94508920D03*
G04 #@! TD*
G04 #@! TO.C,C59*
X91917520Y-91849540D03*
X90393520Y-91849540D03*
G04 #@! TD*
G04 #@! TO.C,C42*
X143647160Y-91575220D03*
X142123160Y-91575220D03*
G04 #@! TD*
G04 #@! TO.C,C58*
X81828640Y-91760640D03*
X80304640Y-91760640D03*
G04 #@! TD*
D12*
G04 #@! TO.C,C53*
X95465900Y-99821300D03*
X95465900Y-102021300D03*
G04 #@! TD*
D11*
G04 #@! TO.C,C47*
X112588040Y-91852080D03*
X114112040Y-91852080D03*
G04 #@! TD*
G04 #@! TO.C,C57*
X80213200Y-93777400D03*
X81737200Y-93777400D03*
G04 #@! TD*
D12*
G04 #@! TO.C,C56*
X124170440Y-100235320D03*
X124170440Y-102435320D03*
G04 #@! TD*
D11*
G04 #@! TO.C,C52*
X96723200Y-94417480D03*
X98247200Y-94417480D03*
G04 #@! TD*
G04 #@! TO.C,C50*
X108427520Y-91206920D03*
X106903520Y-91206920D03*
G04 #@! TD*
G04 #@! TO.C,C37*
X212557360Y-93160180D03*
X214081360Y-93160180D03*
G04 #@! TD*
G04 #@! TO.C,C30*
X244812820Y-90678600D03*
X246336820Y-90678600D03*
G04 #@! TD*
G04 #@! TO.C,C28*
X251460000Y-93172880D03*
X249936000Y-93172880D03*
G04 #@! TD*
G04 #@! TO.C,C40*
X226590860Y-93625000D03*
X225066860Y-93625000D03*
G04 #@! TD*
G04 #@! TO.C,C32*
X233492040Y-92327060D03*
X231968040Y-92327060D03*
G04 #@! TD*
G04 #@! TO.C,C31*
X231823260Y-90183300D03*
X233347260Y-90183300D03*
G04 #@! TD*
G04 #@! TO.C,C27*
X249961400Y-90960540D03*
X251485400Y-90960540D03*
G04 #@! TD*
D12*
G04 #@! TO.C,C35*
X216941400Y-101961460D03*
X216941400Y-99761460D03*
G04 #@! TD*
D11*
G04 #@! TO.C,C26*
X261678420Y-90899580D03*
X263202420Y-90899580D03*
G04 #@! TD*
G04 #@! TO.C,C39*
X225064320Y-91366940D03*
X226588320Y-91366940D03*
G04 #@! TD*
G04 #@! TO.C,C38*
X212755480Y-90902120D03*
X214279480Y-90902120D03*
G04 #@! TD*
D13*
G04 #@! TO.C,J3*
X245310000Y-117730000D03*
X242770000Y-117730000D03*
X240230000Y-117730000D03*
X237690000Y-117730000D03*
X237690000Y-120270000D03*
X240230000Y-120270000D03*
X242770000Y-120270000D03*
D14*
X245310000Y-120270000D03*
G04 #@! TD*
D11*
G04 #@! TO.C,C29*
X246433340Y-93015400D03*
X244909340Y-93015400D03*
G04 #@! TD*
D12*
G04 #@! TO.C,C36*
X233800000Y-97700000D03*
X233800000Y-99900000D03*
G04 #@! TD*
D11*
G04 #@! TO.C,C72*
X29600000Y-93762000D03*
X29600000Y-92238000D03*
G04 #@! TD*
G04 #@! TO.C,C67*
X45762000Y-90000000D03*
X44238000Y-90000000D03*
G04 #@! TD*
G04 #@! TO.C,C64*
X58738000Y-92750000D03*
X60262000Y-92750000D03*
G04 #@! TD*
G04 #@! TO.C,C62*
X72012000Y-90250000D03*
X70488000Y-90250000D03*
G04 #@! TD*
G04 #@! TO.C,C68*
X44238000Y-92250000D03*
X45762000Y-92250000D03*
G04 #@! TD*
G04 #@! TO.C,C80*
X27200000Y-92238000D03*
X27200000Y-93762000D03*
G04 #@! TD*
G04 #@! TO.C,C79*
X27200000Y-88238000D03*
X27200000Y-89762000D03*
G04 #@! TD*
G04 #@! TO.C,C66*
X56762000Y-90250000D03*
X55238000Y-90250000D03*
G04 #@! TD*
D12*
G04 #@! TO.C,C73*
X64600000Y-101500000D03*
X64600000Y-99300000D03*
G04 #@! TD*
D11*
G04 #@! TO.C,C77*
X21200000Y-106562000D03*
X21200000Y-105038000D03*
G04 #@! TD*
G04 #@! TO.C,C69*
X39539600Y-92638400D03*
X41063600Y-92638400D03*
G04 #@! TD*
D12*
G04 #@! TO.C,C75*
X36509960Y-102743780D03*
X36509960Y-100543780D03*
G04 #@! TD*
D11*
G04 #@! TO.C,C65*
X55238000Y-92750000D03*
X56762000Y-92750000D03*
G04 #@! TD*
G04 #@! TO.C,C63*
X60262000Y-90250000D03*
X58738000Y-90250000D03*
G04 #@! TD*
G04 #@! TO.C,C70*
X40995600Y-90297600D03*
X39471600Y-90297600D03*
G04 #@! TD*
G04 #@! TO.C,C71*
X29600000Y-90162000D03*
X29600000Y-88638000D03*
G04 #@! TD*
G04 #@! TO.C,C78*
X21250000Y-95238000D03*
X21250000Y-96762000D03*
G04 #@! TD*
G04 #@! TO.C,C6*
X192074800Y-90749720D03*
X193598800Y-90749720D03*
G04 #@! TD*
G04 #@! TO.C,C2*
X208523840Y-90904660D03*
X210047840Y-90904660D03*
G04 #@! TD*
G04 #@! TO.C,C12*
X162839400Y-93470060D03*
X164363400Y-93470060D03*
G04 #@! TD*
G04 #@! TO.C,C18*
X149012000Y-91500000D03*
X147488000Y-91500000D03*
G04 #@! TD*
G04 #@! TO.C,C17*
X147558760Y-93947580D03*
X149082760Y-93947580D03*
G04 #@! TD*
D12*
G04 #@! TO.C,C16*
X195900000Y-102200000D03*
X195900000Y-100000000D03*
G04 #@! TD*
D11*
G04 #@! TO.C,C11*
X164262000Y-91250000D03*
X162738000Y-91250000D03*
G04 #@! TD*
G04 #@! TO.C,C9*
X173638000Y-93600000D03*
X175162000Y-93600000D03*
G04 #@! TD*
G04 #@! TO.C,C7*
X182200000Y-89462000D03*
X182200000Y-87938000D03*
G04 #@! TD*
G04 #@! TO.C,C1*
X209824320Y-93233840D03*
X208300320Y-93233840D03*
G04 #@! TD*
G04 #@! TO.C,C25*
X263202420Y-93287180D03*
X261678420Y-93287180D03*
G04 #@! TD*
G04 #@! TO.C,C10*
X175162000Y-91400000D03*
X173638000Y-91400000D03*
G04 #@! TD*
G04 #@! TO.C,C5*
X193586100Y-93083980D03*
X192062100Y-93083980D03*
G04 #@! TD*
G04 #@! TO.C,C8*
X182200000Y-92538000D03*
X182200000Y-94062000D03*
G04 #@! TD*
G04 #@! TO.C,C24*
X267075920Y-93172880D03*
X265551920Y-93172880D03*
G04 #@! TD*
G04 #@! TO.C,C23*
X265437620Y-90899580D03*
X266961620Y-90899580D03*
G04 #@! TD*
G04 #@! TO.C,C22*
X278523700Y-90401740D03*
X276999700Y-90401740D03*
G04 #@! TD*
G04 #@! TO.C,C21*
X277050500Y-92611540D03*
X278574500Y-92611540D03*
G04 #@! TD*
G04 #@! TO.C,C20*
X158738000Y-93750000D03*
X160262000Y-93750000D03*
G04 #@! TD*
G04 #@! TO.C,C4*
X198170800Y-93459900D03*
X196646800Y-93459900D03*
G04 #@! TD*
G04 #@! TO.C,C3*
X196646800Y-90980860D03*
X198170800Y-90980860D03*
G04 #@! TD*
G04 #@! TO.C,C19*
X160262000Y-91500000D03*
X158738000Y-91500000D03*
G04 #@! TD*
D12*
G04 #@! TO.C,C15*
X167200000Y-101100000D03*
X167200000Y-103300000D03*
G04 #@! TD*
D15*
G04 #@! TO.C,U9*
X32049720Y-98377340D03*
X33319720Y-104727340D03*
X32049720Y-104727340D03*
X30779720Y-104727340D03*
X29509720Y-104727340D03*
X28239720Y-104727340D03*
X26969720Y-104727340D03*
X25699720Y-104727340D03*
X24429720Y-104727340D03*
X24429720Y-98377340D03*
X25699720Y-98377340D03*
X26969720Y-98377340D03*
X28239720Y-98377340D03*
X29509720Y-98377340D03*
X30779720Y-98377340D03*
X33319720Y-98377340D03*
G04 #@! TD*
G04 #@! TO.C,U8*
X61335920Y-97879500D03*
X58795920Y-97879500D03*
X57525920Y-97879500D03*
X56255920Y-97879500D03*
X54985920Y-97879500D03*
X53715920Y-97879500D03*
X52445920Y-97879500D03*
X52445920Y-104229500D03*
X53715920Y-104229500D03*
X54985920Y-104229500D03*
X56255920Y-104229500D03*
X57525920Y-104229500D03*
X58795920Y-104229500D03*
X60065920Y-104229500D03*
X61335920Y-104229500D03*
X60065920Y-97879500D03*
G04 #@! TD*
D13*
G04 #@! TO.C,J12*
X217700000Y-111540000D03*
X217700000Y-109000000D03*
D14*
X217700000Y-106460000D03*
G04 #@! TD*
D13*
G04 #@! TO.C,J2*
X259810000Y-117730000D03*
X257270000Y-117730000D03*
X254730000Y-117730000D03*
X252190000Y-117730000D03*
X252190000Y-120270000D03*
X254730000Y-120270000D03*
X257270000Y-120270000D03*
D14*
X259810000Y-120270000D03*
G04 #@! TD*
G04 #@! TO.C,J1*
X277810000Y-120270000D03*
D13*
X275270000Y-120270000D03*
X272730000Y-120270000D03*
X270190000Y-120270000D03*
X270190000Y-117730000D03*
X272730000Y-117730000D03*
X275270000Y-117730000D03*
X277810000Y-117730000D03*
G04 #@! TD*
D15*
G04 #@! TO.C,U6*
X120360440Y-98256840D03*
X121630440Y-104606840D03*
X120360440Y-104606840D03*
X119090440Y-104606840D03*
X117820440Y-104606840D03*
X116550440Y-104606840D03*
X115280440Y-104606840D03*
X114010440Y-104606840D03*
X112740440Y-104606840D03*
X112740440Y-98256840D03*
X114010440Y-98256840D03*
X115280440Y-98256840D03*
X116550440Y-98256840D03*
X117820440Y-98256840D03*
X119090440Y-98256840D03*
X121630440Y-98256840D03*
G04 #@! TD*
D14*
G04 #@! TO.C,J5*
X230310000Y-120270000D03*
D13*
X227770000Y-120270000D03*
X225230000Y-120270000D03*
X222690000Y-120270000D03*
X222690000Y-117730000D03*
X225230000Y-117730000D03*
X227770000Y-117730000D03*
X230310000Y-117730000D03*
G04 #@! TD*
D15*
G04 #@! TO.C,U7*
X91338400Y-98261920D03*
X88798400Y-98261920D03*
X87528400Y-98261920D03*
X86258400Y-98261920D03*
X84988400Y-98261920D03*
X83718400Y-98261920D03*
X82448400Y-98261920D03*
X82448400Y-104611920D03*
X83718400Y-104611920D03*
X84988400Y-104611920D03*
X86258400Y-104611920D03*
X87528400Y-104611920D03*
X88798400Y-104611920D03*
X90068400Y-104611920D03*
X91338400Y-104611920D03*
X90068400Y-98261920D03*
G04 #@! TD*
G04 #@! TO.C,U4*
X229504240Y-96739040D03*
X230774240Y-103089040D03*
X229504240Y-103089040D03*
X228234240Y-103089040D03*
X226964240Y-103089040D03*
X225694240Y-103089040D03*
X224424240Y-103089040D03*
X223154240Y-103089040D03*
X221884240Y-103089040D03*
X221884240Y-96739040D03*
X223154240Y-96739040D03*
X224424240Y-96739040D03*
X225694240Y-96739040D03*
X226964240Y-96739040D03*
X228234240Y-96739040D03*
X230774240Y-96739040D03*
G04 #@! TD*
G04 #@! TO.C,U3*
X161805620Y-98992020D03*
X163075620Y-105342020D03*
X161805620Y-105342020D03*
X160535620Y-105342020D03*
X159265620Y-105342020D03*
X157995620Y-105342020D03*
X156725620Y-105342020D03*
X155455620Y-105342020D03*
X154185620Y-105342020D03*
X154185620Y-98992020D03*
X155455620Y-98992020D03*
X156725620Y-98992020D03*
X157995620Y-98992020D03*
X159265620Y-98992020D03*
X160535620Y-98992020D03*
X163075620Y-98992020D03*
G04 #@! TD*
G04 #@! TO.C,U2*
X192345000Y-97925000D03*
X189805000Y-97925000D03*
X188535000Y-97925000D03*
X187265000Y-97925000D03*
X185995000Y-97925000D03*
X184725000Y-97925000D03*
X183455000Y-97925000D03*
X183455000Y-104275000D03*
X184725000Y-104275000D03*
X185995000Y-104275000D03*
X187265000Y-104275000D03*
X188535000Y-104275000D03*
X189805000Y-104275000D03*
X191075000Y-104275000D03*
X192345000Y-104275000D03*
X191075000Y-97925000D03*
G04 #@! TD*
D11*
G04 #@! TO.C,R8*
X210113880Y-87394380D03*
X211637880Y-87394380D03*
G04 #@! TD*
G04 #@! TO.C,R11*
X76319380Y-89362880D03*
X76319380Y-90886880D03*
G04 #@! TD*
D13*
G04 #@! TO.C,J20*
X177474880Y-106952380D03*
X174934880Y-106952380D03*
D14*
X172394880Y-106952380D03*
G04 #@! TD*
G04 #@! TO.C,OUTPUT1*
X211810000Y-120270000D03*
D13*
X209270000Y-120270000D03*
X206730000Y-120270000D03*
X204190000Y-120270000D03*
X204190000Y-117730000D03*
X206730000Y-117730000D03*
X209270000Y-117730000D03*
X211810000Y-117730000D03*
G04 #@! TD*
G04 #@! TO.C,J4*
X176331880Y-119868280D03*
X173791880Y-119868280D03*
D14*
X171251880Y-119868280D03*
G04 #@! TD*
D16*
G04 #@! TO.C,JP1*
X172161200Y-111384680D03*
D17*
X179430680Y-116083680D03*
X167391080Y-116083680D03*
D16*
X172161200Y-113365880D03*
X174660560Y-111384680D03*
X174660560Y-113365880D03*
G04 #@! TD*
D18*
G04 #@! TO.C,R2*
G36*
X130762571Y-99175433D02*
X130783806Y-99178583D01*
X130804630Y-99183799D01*
X130824842Y-99191031D01*
X130844248Y-99200210D01*
X130862661Y-99211246D01*
X130879904Y-99224034D01*
X130895810Y-99238450D01*
X130910226Y-99254356D01*
X130923014Y-99271599D01*
X130934050Y-99290012D01*
X130943229Y-99309418D01*
X130950461Y-99329630D01*
X130955677Y-99350454D01*
X130958827Y-99371689D01*
X130959880Y-99393130D01*
X130959880Y-99830630D01*
X130958827Y-99852071D01*
X130955677Y-99873306D01*
X130950461Y-99894130D01*
X130943229Y-99914342D01*
X130934050Y-99933748D01*
X130923014Y-99952161D01*
X130910226Y-99969404D01*
X130895810Y-99985310D01*
X130879904Y-99999726D01*
X130862661Y-100012514D01*
X130844248Y-100023550D01*
X130824842Y-100032729D01*
X130804630Y-100039961D01*
X130783806Y-100045177D01*
X130762571Y-100048327D01*
X130741130Y-100049380D01*
X130228630Y-100049380D01*
X130207189Y-100048327D01*
X130185954Y-100045177D01*
X130165130Y-100039961D01*
X130144918Y-100032729D01*
X130125512Y-100023550D01*
X130107099Y-100012514D01*
X130089856Y-99999726D01*
X130073950Y-99985310D01*
X130059534Y-99969404D01*
X130046746Y-99952161D01*
X130035710Y-99933748D01*
X130026531Y-99914342D01*
X130019299Y-99894130D01*
X130014083Y-99873306D01*
X130010933Y-99852071D01*
X130009880Y-99830630D01*
X130009880Y-99393130D01*
X130010933Y-99371689D01*
X130014083Y-99350454D01*
X130019299Y-99329630D01*
X130026531Y-99309418D01*
X130035710Y-99290012D01*
X130046746Y-99271599D01*
X130059534Y-99254356D01*
X130073950Y-99238450D01*
X130089856Y-99224034D01*
X130107099Y-99211246D01*
X130125512Y-99200210D01*
X130144918Y-99191031D01*
X130165130Y-99183799D01*
X130185954Y-99178583D01*
X130207189Y-99175433D01*
X130228630Y-99174380D01*
X130741130Y-99174380D01*
X130762571Y-99175433D01*
X130762571Y-99175433D01*
G37*
D19*
X130484880Y-99611880D03*
D18*
G36*
X130762571Y-97600433D02*
X130783806Y-97603583D01*
X130804630Y-97608799D01*
X130824842Y-97616031D01*
X130844248Y-97625210D01*
X130862661Y-97636246D01*
X130879904Y-97649034D01*
X130895810Y-97663450D01*
X130910226Y-97679356D01*
X130923014Y-97696599D01*
X130934050Y-97715012D01*
X130943229Y-97734418D01*
X130950461Y-97754630D01*
X130955677Y-97775454D01*
X130958827Y-97796689D01*
X130959880Y-97818130D01*
X130959880Y-98255630D01*
X130958827Y-98277071D01*
X130955677Y-98298306D01*
X130950461Y-98319130D01*
X130943229Y-98339342D01*
X130934050Y-98358748D01*
X130923014Y-98377161D01*
X130910226Y-98394404D01*
X130895810Y-98410310D01*
X130879904Y-98424726D01*
X130862661Y-98437514D01*
X130844248Y-98448550D01*
X130824842Y-98457729D01*
X130804630Y-98464961D01*
X130783806Y-98470177D01*
X130762571Y-98473327D01*
X130741130Y-98474380D01*
X130228630Y-98474380D01*
X130207189Y-98473327D01*
X130185954Y-98470177D01*
X130165130Y-98464961D01*
X130144918Y-98457729D01*
X130125512Y-98448550D01*
X130107099Y-98437514D01*
X130089856Y-98424726D01*
X130073950Y-98410310D01*
X130059534Y-98394404D01*
X130046746Y-98377161D01*
X130035710Y-98358748D01*
X130026531Y-98339342D01*
X130019299Y-98319130D01*
X130014083Y-98298306D01*
X130010933Y-98277071D01*
X130009880Y-98255630D01*
X130009880Y-97818130D01*
X130010933Y-97796689D01*
X130014083Y-97775454D01*
X130019299Y-97754630D01*
X130026531Y-97734418D01*
X130035710Y-97715012D01*
X130046746Y-97696599D01*
X130059534Y-97679356D01*
X130073950Y-97663450D01*
X130089856Y-97649034D01*
X130107099Y-97636246D01*
X130125512Y-97625210D01*
X130144918Y-97616031D01*
X130165130Y-97608799D01*
X130185954Y-97603583D01*
X130207189Y-97600433D01*
X130228630Y-97599380D01*
X130741130Y-97599380D01*
X130762571Y-97600433D01*
X130762571Y-97600433D01*
G37*
D19*
X130484880Y-98036880D03*
G04 #@! TD*
D13*
G04 #@! TO.C,J18*
X39660000Y-98000000D03*
X42200000Y-98000000D03*
D14*
X44740000Y-98000000D03*
G04 #@! TD*
D20*
G04 #@! TO.C,C14*
X240400000Y-95800000D03*
X242600000Y-95800000D03*
G04 #@! TD*
D11*
G04 #@! TO.C,R6*
X179252880Y-89680380D03*
X179252880Y-88156380D03*
G04 #@! TD*
G04 #@! TO.C,R9*
X195635880Y-87584880D03*
X194111880Y-87584880D03*
G04 #@! TD*
D18*
G04 #@! TO.C,R3*
G36*
X78692571Y-98349933D02*
X78713806Y-98353083D01*
X78734630Y-98358299D01*
X78754842Y-98365531D01*
X78774248Y-98374710D01*
X78792661Y-98385746D01*
X78809904Y-98398534D01*
X78825810Y-98412950D01*
X78840226Y-98428856D01*
X78853014Y-98446099D01*
X78864050Y-98464512D01*
X78873229Y-98483918D01*
X78880461Y-98504130D01*
X78885677Y-98524954D01*
X78888827Y-98546189D01*
X78889880Y-98567630D01*
X78889880Y-99005130D01*
X78888827Y-99026571D01*
X78885677Y-99047806D01*
X78880461Y-99068630D01*
X78873229Y-99088842D01*
X78864050Y-99108248D01*
X78853014Y-99126661D01*
X78840226Y-99143904D01*
X78825810Y-99159810D01*
X78809904Y-99174226D01*
X78792661Y-99187014D01*
X78774248Y-99198050D01*
X78754842Y-99207229D01*
X78734630Y-99214461D01*
X78713806Y-99219677D01*
X78692571Y-99222827D01*
X78671130Y-99223880D01*
X78158630Y-99223880D01*
X78137189Y-99222827D01*
X78115954Y-99219677D01*
X78095130Y-99214461D01*
X78074918Y-99207229D01*
X78055512Y-99198050D01*
X78037099Y-99187014D01*
X78019856Y-99174226D01*
X78003950Y-99159810D01*
X77989534Y-99143904D01*
X77976746Y-99126661D01*
X77965710Y-99108248D01*
X77956531Y-99088842D01*
X77949299Y-99068630D01*
X77944083Y-99047806D01*
X77940933Y-99026571D01*
X77939880Y-99005130D01*
X77939880Y-98567630D01*
X77940933Y-98546189D01*
X77944083Y-98524954D01*
X77949299Y-98504130D01*
X77956531Y-98483918D01*
X77965710Y-98464512D01*
X77976746Y-98446099D01*
X77989534Y-98428856D01*
X78003950Y-98412950D01*
X78019856Y-98398534D01*
X78037099Y-98385746D01*
X78055512Y-98374710D01*
X78074918Y-98365531D01*
X78095130Y-98358299D01*
X78115954Y-98353083D01*
X78137189Y-98349933D01*
X78158630Y-98348880D01*
X78671130Y-98348880D01*
X78692571Y-98349933D01*
X78692571Y-98349933D01*
G37*
D19*
X78414880Y-98786380D03*
D18*
G36*
X78692571Y-96774933D02*
X78713806Y-96778083D01*
X78734630Y-96783299D01*
X78754842Y-96790531D01*
X78774248Y-96799710D01*
X78792661Y-96810746D01*
X78809904Y-96823534D01*
X78825810Y-96837950D01*
X78840226Y-96853856D01*
X78853014Y-96871099D01*
X78864050Y-96889512D01*
X78873229Y-96908918D01*
X78880461Y-96929130D01*
X78885677Y-96949954D01*
X78888827Y-96971189D01*
X78889880Y-96992630D01*
X78889880Y-97430130D01*
X78888827Y-97451571D01*
X78885677Y-97472806D01*
X78880461Y-97493630D01*
X78873229Y-97513842D01*
X78864050Y-97533248D01*
X78853014Y-97551661D01*
X78840226Y-97568904D01*
X78825810Y-97584810D01*
X78809904Y-97599226D01*
X78792661Y-97612014D01*
X78774248Y-97623050D01*
X78754842Y-97632229D01*
X78734630Y-97639461D01*
X78713806Y-97644677D01*
X78692571Y-97647827D01*
X78671130Y-97648880D01*
X78158630Y-97648880D01*
X78137189Y-97647827D01*
X78115954Y-97644677D01*
X78095130Y-97639461D01*
X78074918Y-97632229D01*
X78055512Y-97623050D01*
X78037099Y-97612014D01*
X78019856Y-97599226D01*
X78003950Y-97584810D01*
X77989534Y-97568904D01*
X77976746Y-97551661D01*
X77965710Y-97533248D01*
X77956531Y-97513842D01*
X77949299Y-97493630D01*
X77944083Y-97472806D01*
X77940933Y-97451571D01*
X77939880Y-97430130D01*
X77939880Y-96992630D01*
X77940933Y-96971189D01*
X77944083Y-96949954D01*
X77949299Y-96929130D01*
X77956531Y-96908918D01*
X77965710Y-96889512D01*
X77976746Y-96871099D01*
X77989534Y-96853856D01*
X78003950Y-96837950D01*
X78019856Y-96823534D01*
X78037099Y-96810746D01*
X78055512Y-96799710D01*
X78074918Y-96790531D01*
X78095130Y-96783299D01*
X78115954Y-96778083D01*
X78137189Y-96774933D01*
X78158630Y-96773880D01*
X78671130Y-96773880D01*
X78692571Y-96774933D01*
X78692571Y-96774933D01*
G37*
D19*
X78414880Y-97211380D03*
G04 #@! TD*
D11*
G04 #@! TO.C,R7*
X128960880Y-87711880D03*
X128960880Y-89235880D03*
G04 #@! TD*
D21*
G04 #@! TO.C,D1*
X247489980Y-87216580D03*
X245711980Y-87216580D03*
G04 #@! TD*
D22*
G04 #@! TO.C,RN34*
X245812880Y-109113880D03*
D23*
X245812880Y-107843880D03*
X245812880Y-106573880D03*
X245812880Y-105303880D03*
X249012880Y-105303880D03*
X249012880Y-106573880D03*
X249012880Y-107843880D03*
D22*
X249012880Y-109113880D03*
G04 #@! TD*
D13*
G04 #@! TO.C,INPUT1*
X193810000Y-117730000D03*
X191270000Y-117730000D03*
X188730000Y-117730000D03*
X186190000Y-117730000D03*
X186190000Y-120270000D03*
X188730000Y-120270000D03*
X191270000Y-120270000D03*
D14*
X193810000Y-120270000D03*
G04 #@! TD*
D18*
G04 #@! TO.C,R1*
G36*
X196866071Y-94742933D02*
X196887306Y-94746083D01*
X196908130Y-94751299D01*
X196928342Y-94758531D01*
X196947748Y-94767710D01*
X196966161Y-94778746D01*
X196983404Y-94791534D01*
X196999310Y-94805950D01*
X197013726Y-94821856D01*
X197026514Y-94839099D01*
X197037550Y-94857512D01*
X197046729Y-94876918D01*
X197053961Y-94897130D01*
X197059177Y-94917954D01*
X197062327Y-94939189D01*
X197063380Y-94960630D01*
X197063380Y-95398130D01*
X197062327Y-95419571D01*
X197059177Y-95440806D01*
X197053961Y-95461630D01*
X197046729Y-95481842D01*
X197037550Y-95501248D01*
X197026514Y-95519661D01*
X197013726Y-95536904D01*
X196999310Y-95552810D01*
X196983404Y-95567226D01*
X196966161Y-95580014D01*
X196947748Y-95591050D01*
X196928342Y-95600229D01*
X196908130Y-95607461D01*
X196887306Y-95612677D01*
X196866071Y-95615827D01*
X196844630Y-95616880D01*
X196332130Y-95616880D01*
X196310689Y-95615827D01*
X196289454Y-95612677D01*
X196268630Y-95607461D01*
X196248418Y-95600229D01*
X196229012Y-95591050D01*
X196210599Y-95580014D01*
X196193356Y-95567226D01*
X196177450Y-95552810D01*
X196163034Y-95536904D01*
X196150246Y-95519661D01*
X196139210Y-95501248D01*
X196130031Y-95481842D01*
X196122799Y-95461630D01*
X196117583Y-95440806D01*
X196114433Y-95419571D01*
X196113380Y-95398130D01*
X196113380Y-94960630D01*
X196114433Y-94939189D01*
X196117583Y-94917954D01*
X196122799Y-94897130D01*
X196130031Y-94876918D01*
X196139210Y-94857512D01*
X196150246Y-94839099D01*
X196163034Y-94821856D01*
X196177450Y-94805950D01*
X196193356Y-94791534D01*
X196210599Y-94778746D01*
X196229012Y-94767710D01*
X196248418Y-94758531D01*
X196268630Y-94751299D01*
X196289454Y-94746083D01*
X196310689Y-94742933D01*
X196332130Y-94741880D01*
X196844630Y-94741880D01*
X196866071Y-94742933D01*
X196866071Y-94742933D01*
G37*
D19*
X196588380Y-95179380D03*
D18*
G36*
X196866071Y-96317933D02*
X196887306Y-96321083D01*
X196908130Y-96326299D01*
X196928342Y-96333531D01*
X196947748Y-96342710D01*
X196966161Y-96353746D01*
X196983404Y-96366534D01*
X196999310Y-96380950D01*
X197013726Y-96396856D01*
X197026514Y-96414099D01*
X197037550Y-96432512D01*
X197046729Y-96451918D01*
X197053961Y-96472130D01*
X197059177Y-96492954D01*
X197062327Y-96514189D01*
X197063380Y-96535630D01*
X197063380Y-96973130D01*
X197062327Y-96994571D01*
X197059177Y-97015806D01*
X197053961Y-97036630D01*
X197046729Y-97056842D01*
X197037550Y-97076248D01*
X197026514Y-97094661D01*
X197013726Y-97111904D01*
X196999310Y-97127810D01*
X196983404Y-97142226D01*
X196966161Y-97155014D01*
X196947748Y-97166050D01*
X196928342Y-97175229D01*
X196908130Y-97182461D01*
X196887306Y-97187677D01*
X196866071Y-97190827D01*
X196844630Y-97191880D01*
X196332130Y-97191880D01*
X196310689Y-97190827D01*
X196289454Y-97187677D01*
X196268630Y-97182461D01*
X196248418Y-97175229D01*
X196229012Y-97166050D01*
X196210599Y-97155014D01*
X196193356Y-97142226D01*
X196177450Y-97127810D01*
X196163034Y-97111904D01*
X196150246Y-97094661D01*
X196139210Y-97076248D01*
X196130031Y-97056842D01*
X196122799Y-97036630D01*
X196117583Y-97015806D01*
X196114433Y-96994571D01*
X196113380Y-96973130D01*
X196113380Y-96535630D01*
X196114433Y-96514189D01*
X196117583Y-96492954D01*
X196122799Y-96472130D01*
X196130031Y-96451918D01*
X196139210Y-96432512D01*
X196150246Y-96414099D01*
X196163034Y-96396856D01*
X196177450Y-96380950D01*
X196193356Y-96366534D01*
X196210599Y-96353746D01*
X196229012Y-96342710D01*
X196248418Y-96333531D01*
X196268630Y-96326299D01*
X196289454Y-96321083D01*
X196310689Y-96317933D01*
X196332130Y-96316880D01*
X196844630Y-96316880D01*
X196866071Y-96317933D01*
X196866071Y-96317933D01*
G37*
D19*
X196588380Y-96754380D03*
G04 #@! TD*
D11*
G04 #@! TO.C,R4*
X251299980Y-87216580D03*
X249775980Y-87216580D03*
G04 #@! TD*
G04 #@! TO.C,R12*
X41203880Y-101173880D03*
X39679880Y-101173880D03*
G04 #@! TD*
G04 #@! TO.C,R10*
X110672880Y-89680380D03*
X110672880Y-88156380D03*
G04 #@! TD*
G04 #@! TO.C,C41*
X142123160Y-93868840D03*
X143647160Y-93868840D03*
G04 #@! TD*
D15*
G04 #@! TO.C,U5*
X213715600Y-97368960D03*
X211175600Y-97368960D03*
X209905600Y-97368960D03*
X208635600Y-97368960D03*
X207365600Y-97368960D03*
X206095600Y-97368960D03*
X204825600Y-97368960D03*
X204825600Y-103718960D03*
X206095600Y-103718960D03*
X207365600Y-103718960D03*
X208635600Y-103718960D03*
X209905600Y-103718960D03*
X211175600Y-103718960D03*
X212445600Y-103718960D03*
X213715600Y-103718960D03*
X212445600Y-97368960D03*
G04 #@! TD*
D11*
G04 #@! TO.C,C1*
X208300320Y-47233840D03*
X209824320Y-47233840D03*
G04 #@! TD*
G04 #@! TO.C,C2*
X210047840Y-44904660D03*
X208523840Y-44904660D03*
G04 #@! TD*
G04 #@! TO.C,C3*
X198170800Y-44980860D03*
X196646800Y-44980860D03*
G04 #@! TD*
G04 #@! TO.C,C4*
X196646800Y-47459900D03*
X198170800Y-47459900D03*
G04 #@! TD*
G04 #@! TO.C,C5*
X192062100Y-47083980D03*
X193586100Y-47083980D03*
G04 #@! TD*
G04 #@! TO.C,C6*
X193598800Y-44749720D03*
X192074800Y-44749720D03*
G04 #@! TD*
G04 #@! TO.C,C7*
X182200000Y-41938000D03*
X182200000Y-43462000D03*
G04 #@! TD*
G04 #@! TO.C,C8*
X182200000Y-48062000D03*
X182200000Y-46538000D03*
G04 #@! TD*
G04 #@! TO.C,C9*
X175162000Y-47600000D03*
X173638000Y-47600000D03*
G04 #@! TD*
G04 #@! TO.C,C10*
X173638000Y-45400000D03*
X175162000Y-45400000D03*
G04 #@! TD*
G04 #@! TO.C,C11*
X162738000Y-45250000D03*
X164262000Y-45250000D03*
G04 #@! TD*
G04 #@! TO.C,C12*
X164363400Y-47470060D03*
X162839400Y-47470060D03*
G04 #@! TD*
D12*
G04 #@! TO.C,C15*
X167200000Y-57300000D03*
X167200000Y-55100000D03*
G04 #@! TD*
G04 #@! TO.C,C16*
X195900000Y-54000000D03*
X195900000Y-56200000D03*
G04 #@! TD*
D11*
G04 #@! TO.C,C17*
X149082760Y-47947580D03*
X147558760Y-47947580D03*
G04 #@! TD*
G04 #@! TO.C,C18*
X147488000Y-45500000D03*
X149012000Y-45500000D03*
G04 #@! TD*
G04 #@! TO.C,C19*
X158738000Y-45500000D03*
X160262000Y-45500000D03*
G04 #@! TD*
G04 #@! TO.C,C20*
X160262000Y-47750000D03*
X158738000Y-47750000D03*
G04 #@! TD*
G04 #@! TO.C,C21*
X278574500Y-46611540D03*
X277050500Y-46611540D03*
G04 #@! TD*
G04 #@! TO.C,C22*
X276999700Y-44401740D03*
X278523700Y-44401740D03*
G04 #@! TD*
G04 #@! TO.C,C23*
X266961620Y-44899580D03*
X265437620Y-44899580D03*
G04 #@! TD*
G04 #@! TO.C,C24*
X265551920Y-47172880D03*
X267075920Y-47172880D03*
G04 #@! TD*
G04 #@! TO.C,C25*
X261678420Y-47287180D03*
X263202420Y-47287180D03*
G04 #@! TD*
G04 #@! TO.C,C26*
X263202420Y-44899580D03*
X261678420Y-44899580D03*
G04 #@! TD*
G04 #@! TO.C,C27*
X251485400Y-44960540D03*
X249961400Y-44960540D03*
G04 #@! TD*
G04 #@! TO.C,C28*
X249936000Y-47172880D03*
X251460000Y-47172880D03*
G04 #@! TD*
G04 #@! TO.C,C29*
X244909340Y-47015400D03*
X246433340Y-47015400D03*
G04 #@! TD*
G04 #@! TO.C,C30*
X246336820Y-44678600D03*
X244812820Y-44678600D03*
G04 #@! TD*
G04 #@! TO.C,C31*
X233347260Y-44183300D03*
X231823260Y-44183300D03*
G04 #@! TD*
G04 #@! TO.C,C32*
X231968040Y-46327060D03*
X233492040Y-46327060D03*
G04 #@! TD*
D12*
G04 #@! TO.C,C35*
X216941400Y-53761460D03*
X216941400Y-55961460D03*
G04 #@! TD*
G04 #@! TO.C,C36*
X233800000Y-53900000D03*
X233800000Y-51700000D03*
G04 #@! TD*
D11*
G04 #@! TO.C,C37*
X214081360Y-47160180D03*
X212557360Y-47160180D03*
G04 #@! TD*
G04 #@! TO.C,C38*
X214279480Y-44902120D03*
X212755480Y-44902120D03*
G04 #@! TD*
G04 #@! TO.C,C39*
X226588320Y-45366940D03*
X225064320Y-45366940D03*
G04 #@! TD*
G04 #@! TO.C,C40*
X225066860Y-47625000D03*
X226590860Y-47625000D03*
G04 #@! TD*
D14*
G04 #@! TO.C,J3*
X245310000Y-74270000D03*
D13*
X242770000Y-74270000D03*
X240230000Y-74270000D03*
X237690000Y-74270000D03*
X237690000Y-71730000D03*
X240230000Y-71730000D03*
X242770000Y-71730000D03*
X245310000Y-71730000D03*
G04 #@! TD*
D15*
G04 #@! TO.C,U2*
X191075000Y-51925000D03*
X192345000Y-58275000D03*
X191075000Y-58275000D03*
X189805000Y-58275000D03*
X188535000Y-58275000D03*
X187265000Y-58275000D03*
X185995000Y-58275000D03*
X184725000Y-58275000D03*
X183455000Y-58275000D03*
X183455000Y-51925000D03*
X184725000Y-51925000D03*
X185995000Y-51925000D03*
X187265000Y-51925000D03*
X188535000Y-51925000D03*
X189805000Y-51925000D03*
X192345000Y-51925000D03*
G04 #@! TD*
G04 #@! TO.C,U3*
X163075620Y-52992020D03*
X160535620Y-52992020D03*
X159265620Y-52992020D03*
X157995620Y-52992020D03*
X156725620Y-52992020D03*
X155455620Y-52992020D03*
X154185620Y-52992020D03*
X154185620Y-59342020D03*
X155455620Y-59342020D03*
X156725620Y-59342020D03*
X157995620Y-59342020D03*
X159265620Y-59342020D03*
X160535620Y-59342020D03*
X161805620Y-59342020D03*
X163075620Y-59342020D03*
X161805620Y-52992020D03*
G04 #@! TD*
G04 #@! TO.C,U4*
X230774240Y-50739040D03*
X228234240Y-50739040D03*
X226964240Y-50739040D03*
X225694240Y-50739040D03*
X224424240Y-50739040D03*
X223154240Y-50739040D03*
X221884240Y-50739040D03*
X221884240Y-57089040D03*
X223154240Y-57089040D03*
X224424240Y-57089040D03*
X225694240Y-57089040D03*
X226964240Y-57089040D03*
X228234240Y-57089040D03*
X229504240Y-57089040D03*
X230774240Y-57089040D03*
X229504240Y-50739040D03*
G04 #@! TD*
G04 #@! TO.C,U5*
X212445600Y-51368960D03*
X213715600Y-57718960D03*
X212445600Y-57718960D03*
X211175600Y-57718960D03*
X209905600Y-57718960D03*
X208635600Y-57718960D03*
X207365600Y-57718960D03*
X206095600Y-57718960D03*
X204825600Y-57718960D03*
X204825600Y-51368960D03*
X206095600Y-51368960D03*
X207365600Y-51368960D03*
X208635600Y-51368960D03*
X209905600Y-51368960D03*
X211175600Y-51368960D03*
X213715600Y-51368960D03*
G04 #@! TD*
D11*
G04 #@! TO.C,C41*
X143647160Y-47868840D03*
X142123160Y-47868840D03*
G04 #@! TD*
G04 #@! TO.C,C42*
X142123160Y-45575220D03*
X143647160Y-45575220D03*
G04 #@! TD*
G04 #@! TO.C,C43*
X132034280Y-45984160D03*
X133558280Y-45984160D03*
G04 #@! TD*
G04 #@! TO.C,C44*
X133649720Y-48508920D03*
X132125720Y-48508920D03*
G04 #@! TD*
G04 #@! TO.C,C45*
X124112020Y-48417480D03*
X122588020Y-48417480D03*
G04 #@! TD*
G04 #@! TO.C,C46*
X122588020Y-45849540D03*
X124112020Y-45849540D03*
G04 #@! TD*
G04 #@! TO.C,C47*
X114112040Y-45852080D03*
X112588040Y-45852080D03*
G04 #@! TD*
G04 #@! TO.C,C48*
X114114580Y-47777400D03*
X112590580Y-47777400D03*
G04 #@! TD*
G04 #@! TO.C,C49*
X108336080Y-47752000D03*
X106812080Y-47752000D03*
G04 #@! TD*
G04 #@! TO.C,C50*
X106903520Y-45206920D03*
X108427520Y-45206920D03*
G04 #@! TD*
G04 #@! TO.C,C51*
X96784160Y-45755560D03*
X98308160Y-45755560D03*
G04 #@! TD*
G04 #@! TO.C,C52*
X98247200Y-48417480D03*
X96723200Y-48417480D03*
G04 #@! TD*
D12*
G04 #@! TO.C,C53*
X95465900Y-56021300D03*
X95465900Y-53821300D03*
G04 #@! TD*
G04 #@! TO.C,C56*
X124170440Y-56435320D03*
X124170440Y-54235320D03*
G04 #@! TD*
D11*
G04 #@! TO.C,C57*
X81737200Y-47777400D03*
X80213200Y-47777400D03*
G04 #@! TD*
G04 #@! TO.C,C58*
X80304640Y-45760640D03*
X81828640Y-45760640D03*
G04 #@! TD*
G04 #@! TO.C,C59*
X90393520Y-45849540D03*
X91917520Y-45849540D03*
G04 #@! TD*
G04 #@! TO.C,C60*
X91917520Y-48508920D03*
X90393520Y-48508920D03*
G04 #@! TD*
G04 #@! TO.C,C61*
X72012000Y-46750000D03*
X70488000Y-46750000D03*
G04 #@! TD*
G04 #@! TO.C,C62*
X70488000Y-44250000D03*
X72012000Y-44250000D03*
G04 #@! TD*
G04 #@! TO.C,C63*
X58738000Y-44250000D03*
X60262000Y-44250000D03*
G04 #@! TD*
G04 #@! TO.C,C64*
X60262000Y-46750000D03*
X58738000Y-46750000D03*
G04 #@! TD*
G04 #@! TO.C,C65*
X56762000Y-46750000D03*
X55238000Y-46750000D03*
G04 #@! TD*
G04 #@! TO.C,C66*
X55238000Y-44250000D03*
X56762000Y-44250000D03*
G04 #@! TD*
G04 #@! TO.C,C67*
X44238000Y-44000000D03*
X45762000Y-44000000D03*
G04 #@! TD*
G04 #@! TO.C,C68*
X45762000Y-46250000D03*
X44238000Y-46250000D03*
G04 #@! TD*
G04 #@! TO.C,C69*
X41063600Y-46638400D03*
X39539600Y-46638400D03*
G04 #@! TD*
G04 #@! TO.C,C70*
X39471600Y-44297600D03*
X40995600Y-44297600D03*
G04 #@! TD*
G04 #@! TO.C,C71*
X29600000Y-42638000D03*
X29600000Y-44162000D03*
G04 #@! TD*
G04 #@! TO.C,C72*
X29600000Y-46238000D03*
X29600000Y-47762000D03*
G04 #@! TD*
D12*
G04 #@! TO.C,C73*
X64600000Y-53300000D03*
X64600000Y-55500000D03*
G04 #@! TD*
G04 #@! TO.C,C75*
X36509960Y-54543780D03*
X36509960Y-56743780D03*
G04 #@! TD*
D11*
G04 #@! TO.C,C77*
X21200000Y-59038000D03*
X21200000Y-60562000D03*
G04 #@! TD*
G04 #@! TO.C,C78*
X21250000Y-50762000D03*
X21250000Y-49238000D03*
G04 #@! TD*
G04 #@! TO.C,C79*
X27200000Y-43762000D03*
X27200000Y-42238000D03*
G04 #@! TD*
G04 #@! TO.C,C80*
X27200000Y-47762000D03*
X27200000Y-46238000D03*
G04 #@! TD*
D15*
G04 #@! TO.C,U6*
X121630440Y-52256840D03*
X119090440Y-52256840D03*
X117820440Y-52256840D03*
X116550440Y-52256840D03*
X115280440Y-52256840D03*
X114010440Y-52256840D03*
X112740440Y-52256840D03*
X112740440Y-58606840D03*
X114010440Y-58606840D03*
X115280440Y-58606840D03*
X116550440Y-58606840D03*
X117820440Y-58606840D03*
X119090440Y-58606840D03*
X120360440Y-58606840D03*
X121630440Y-58606840D03*
X120360440Y-52256840D03*
G04 #@! TD*
G04 #@! TO.C,U7*
X90068400Y-52261920D03*
X91338400Y-58611920D03*
X90068400Y-58611920D03*
X88798400Y-58611920D03*
X87528400Y-58611920D03*
X86258400Y-58611920D03*
X84988400Y-58611920D03*
X83718400Y-58611920D03*
X82448400Y-58611920D03*
X82448400Y-52261920D03*
X83718400Y-52261920D03*
X84988400Y-52261920D03*
X86258400Y-52261920D03*
X87528400Y-52261920D03*
X88798400Y-52261920D03*
X91338400Y-52261920D03*
G04 #@! TD*
G04 #@! TO.C,U8*
X60065920Y-51879500D03*
X61335920Y-58229500D03*
X60065920Y-58229500D03*
X58795920Y-58229500D03*
X57525920Y-58229500D03*
X56255920Y-58229500D03*
X54985920Y-58229500D03*
X53715920Y-58229500D03*
X52445920Y-58229500D03*
X52445920Y-51879500D03*
X53715920Y-51879500D03*
X54985920Y-51879500D03*
X56255920Y-51879500D03*
X57525920Y-51879500D03*
X58795920Y-51879500D03*
X61335920Y-51879500D03*
G04 #@! TD*
G04 #@! TO.C,U9*
X33319720Y-52377340D03*
X30779720Y-52377340D03*
X29509720Y-52377340D03*
X28239720Y-52377340D03*
X26969720Y-52377340D03*
X25699720Y-52377340D03*
X24429720Y-52377340D03*
X24429720Y-58727340D03*
X25699720Y-58727340D03*
X26969720Y-58727340D03*
X28239720Y-58727340D03*
X29509720Y-58727340D03*
X30779720Y-58727340D03*
X32049720Y-58727340D03*
X33319720Y-58727340D03*
X32049720Y-52377340D03*
G04 #@! TD*
D13*
G04 #@! TO.C,J1*
X277810000Y-71730000D03*
X275270000Y-71730000D03*
X272730000Y-71730000D03*
X270190000Y-71730000D03*
X270190000Y-74270000D03*
X272730000Y-74270000D03*
X275270000Y-74270000D03*
D14*
X277810000Y-74270000D03*
G04 #@! TD*
G04 #@! TO.C,J2*
X259810000Y-74270000D03*
D13*
X257270000Y-74270000D03*
X254730000Y-74270000D03*
X252190000Y-74270000D03*
X252190000Y-71730000D03*
X254730000Y-71730000D03*
X257270000Y-71730000D03*
X259810000Y-71730000D03*
G04 #@! TD*
G04 #@! TO.C,J5*
X230310000Y-71730000D03*
X227770000Y-71730000D03*
X225230000Y-71730000D03*
X222690000Y-71730000D03*
X222690000Y-74270000D03*
X225230000Y-74270000D03*
X227770000Y-74270000D03*
D14*
X230310000Y-74270000D03*
G04 #@! TD*
G04 #@! TO.C,J12*
X217700000Y-60460000D03*
D13*
X217700000Y-63000000D03*
X217700000Y-65540000D03*
G04 #@! TD*
D20*
G04 #@! TO.C,C14*
X242600000Y-49800000D03*
X240400000Y-49800000D03*
G04 #@! TD*
D14*
G04 #@! TO.C,J18*
X44740000Y-52000000D03*
D13*
X42200000Y-52000000D03*
X39660000Y-52000000D03*
G04 #@! TD*
D18*
G04 #@! TO.C,R1*
G36*
X196866071Y-50317933D02*
X196887306Y-50321083D01*
X196908130Y-50326299D01*
X196928342Y-50333531D01*
X196947748Y-50342710D01*
X196966161Y-50353746D01*
X196983404Y-50366534D01*
X196999310Y-50380950D01*
X197013726Y-50396856D01*
X197026514Y-50414099D01*
X197037550Y-50432512D01*
X197046729Y-50451918D01*
X197053961Y-50472130D01*
X197059177Y-50492954D01*
X197062327Y-50514189D01*
X197063380Y-50535630D01*
X197063380Y-50973130D01*
X197062327Y-50994571D01*
X197059177Y-51015806D01*
X197053961Y-51036630D01*
X197046729Y-51056842D01*
X197037550Y-51076248D01*
X197026514Y-51094661D01*
X197013726Y-51111904D01*
X196999310Y-51127810D01*
X196983404Y-51142226D01*
X196966161Y-51155014D01*
X196947748Y-51166050D01*
X196928342Y-51175229D01*
X196908130Y-51182461D01*
X196887306Y-51187677D01*
X196866071Y-51190827D01*
X196844630Y-51191880D01*
X196332130Y-51191880D01*
X196310689Y-51190827D01*
X196289454Y-51187677D01*
X196268630Y-51182461D01*
X196248418Y-51175229D01*
X196229012Y-51166050D01*
X196210599Y-51155014D01*
X196193356Y-51142226D01*
X196177450Y-51127810D01*
X196163034Y-51111904D01*
X196150246Y-51094661D01*
X196139210Y-51076248D01*
X196130031Y-51056842D01*
X196122799Y-51036630D01*
X196117583Y-51015806D01*
X196114433Y-50994571D01*
X196113380Y-50973130D01*
X196113380Y-50535630D01*
X196114433Y-50514189D01*
X196117583Y-50492954D01*
X196122799Y-50472130D01*
X196130031Y-50451918D01*
X196139210Y-50432512D01*
X196150246Y-50414099D01*
X196163034Y-50396856D01*
X196177450Y-50380950D01*
X196193356Y-50366534D01*
X196210599Y-50353746D01*
X196229012Y-50342710D01*
X196248418Y-50333531D01*
X196268630Y-50326299D01*
X196289454Y-50321083D01*
X196310689Y-50317933D01*
X196332130Y-50316880D01*
X196844630Y-50316880D01*
X196866071Y-50317933D01*
X196866071Y-50317933D01*
G37*
D19*
X196588380Y-50754380D03*
D18*
G36*
X196866071Y-48742933D02*
X196887306Y-48746083D01*
X196908130Y-48751299D01*
X196928342Y-48758531D01*
X196947748Y-48767710D01*
X196966161Y-48778746D01*
X196983404Y-48791534D01*
X196999310Y-48805950D01*
X197013726Y-48821856D01*
X197026514Y-48839099D01*
X197037550Y-48857512D01*
X197046729Y-48876918D01*
X197053961Y-48897130D01*
X197059177Y-48917954D01*
X197062327Y-48939189D01*
X197063380Y-48960630D01*
X197063380Y-49398130D01*
X197062327Y-49419571D01*
X197059177Y-49440806D01*
X197053961Y-49461630D01*
X197046729Y-49481842D01*
X197037550Y-49501248D01*
X197026514Y-49519661D01*
X197013726Y-49536904D01*
X196999310Y-49552810D01*
X196983404Y-49567226D01*
X196966161Y-49580014D01*
X196947748Y-49591050D01*
X196928342Y-49600229D01*
X196908130Y-49607461D01*
X196887306Y-49612677D01*
X196866071Y-49615827D01*
X196844630Y-49616880D01*
X196332130Y-49616880D01*
X196310689Y-49615827D01*
X196289454Y-49612677D01*
X196268630Y-49607461D01*
X196248418Y-49600229D01*
X196229012Y-49591050D01*
X196210599Y-49580014D01*
X196193356Y-49567226D01*
X196177450Y-49552810D01*
X196163034Y-49536904D01*
X196150246Y-49519661D01*
X196139210Y-49501248D01*
X196130031Y-49481842D01*
X196122799Y-49461630D01*
X196117583Y-49440806D01*
X196114433Y-49419571D01*
X196113380Y-49398130D01*
X196113380Y-48960630D01*
X196114433Y-48939189D01*
X196117583Y-48917954D01*
X196122799Y-48897130D01*
X196130031Y-48876918D01*
X196139210Y-48857512D01*
X196150246Y-48839099D01*
X196163034Y-48821856D01*
X196177450Y-48805950D01*
X196193356Y-48791534D01*
X196210599Y-48778746D01*
X196229012Y-48767710D01*
X196248418Y-48758531D01*
X196268630Y-48751299D01*
X196289454Y-48746083D01*
X196310689Y-48742933D01*
X196332130Y-48741880D01*
X196844630Y-48741880D01*
X196866071Y-48742933D01*
X196866071Y-48742933D01*
G37*
D19*
X196588380Y-49179380D03*
G04 #@! TD*
D18*
G04 #@! TO.C,R2*
G36*
X130762571Y-51600433D02*
X130783806Y-51603583D01*
X130804630Y-51608799D01*
X130824842Y-51616031D01*
X130844248Y-51625210D01*
X130862661Y-51636246D01*
X130879904Y-51649034D01*
X130895810Y-51663450D01*
X130910226Y-51679356D01*
X130923014Y-51696599D01*
X130934050Y-51715012D01*
X130943229Y-51734418D01*
X130950461Y-51754630D01*
X130955677Y-51775454D01*
X130958827Y-51796689D01*
X130959880Y-51818130D01*
X130959880Y-52255630D01*
X130958827Y-52277071D01*
X130955677Y-52298306D01*
X130950461Y-52319130D01*
X130943229Y-52339342D01*
X130934050Y-52358748D01*
X130923014Y-52377161D01*
X130910226Y-52394404D01*
X130895810Y-52410310D01*
X130879904Y-52424726D01*
X130862661Y-52437514D01*
X130844248Y-52448550D01*
X130824842Y-52457729D01*
X130804630Y-52464961D01*
X130783806Y-52470177D01*
X130762571Y-52473327D01*
X130741130Y-52474380D01*
X130228630Y-52474380D01*
X130207189Y-52473327D01*
X130185954Y-52470177D01*
X130165130Y-52464961D01*
X130144918Y-52457729D01*
X130125512Y-52448550D01*
X130107099Y-52437514D01*
X130089856Y-52424726D01*
X130073950Y-52410310D01*
X130059534Y-52394404D01*
X130046746Y-52377161D01*
X130035710Y-52358748D01*
X130026531Y-52339342D01*
X130019299Y-52319130D01*
X130014083Y-52298306D01*
X130010933Y-52277071D01*
X130009880Y-52255630D01*
X130009880Y-51818130D01*
X130010933Y-51796689D01*
X130014083Y-51775454D01*
X130019299Y-51754630D01*
X130026531Y-51734418D01*
X130035710Y-51715012D01*
X130046746Y-51696599D01*
X130059534Y-51679356D01*
X130073950Y-51663450D01*
X130089856Y-51649034D01*
X130107099Y-51636246D01*
X130125512Y-51625210D01*
X130144918Y-51616031D01*
X130165130Y-51608799D01*
X130185954Y-51603583D01*
X130207189Y-51600433D01*
X130228630Y-51599380D01*
X130741130Y-51599380D01*
X130762571Y-51600433D01*
X130762571Y-51600433D01*
G37*
D19*
X130484880Y-52036880D03*
D18*
G36*
X130762571Y-53175433D02*
X130783806Y-53178583D01*
X130804630Y-53183799D01*
X130824842Y-53191031D01*
X130844248Y-53200210D01*
X130862661Y-53211246D01*
X130879904Y-53224034D01*
X130895810Y-53238450D01*
X130910226Y-53254356D01*
X130923014Y-53271599D01*
X130934050Y-53290012D01*
X130943229Y-53309418D01*
X130950461Y-53329630D01*
X130955677Y-53350454D01*
X130958827Y-53371689D01*
X130959880Y-53393130D01*
X130959880Y-53830630D01*
X130958827Y-53852071D01*
X130955677Y-53873306D01*
X130950461Y-53894130D01*
X130943229Y-53914342D01*
X130934050Y-53933748D01*
X130923014Y-53952161D01*
X130910226Y-53969404D01*
X130895810Y-53985310D01*
X130879904Y-53999726D01*
X130862661Y-54012514D01*
X130844248Y-54023550D01*
X130824842Y-54032729D01*
X130804630Y-54039961D01*
X130783806Y-54045177D01*
X130762571Y-54048327D01*
X130741130Y-54049380D01*
X130228630Y-54049380D01*
X130207189Y-54048327D01*
X130185954Y-54045177D01*
X130165130Y-54039961D01*
X130144918Y-54032729D01*
X130125512Y-54023550D01*
X130107099Y-54012514D01*
X130089856Y-53999726D01*
X130073950Y-53985310D01*
X130059534Y-53969404D01*
X130046746Y-53952161D01*
X130035710Y-53933748D01*
X130026531Y-53914342D01*
X130019299Y-53894130D01*
X130014083Y-53873306D01*
X130010933Y-53852071D01*
X130009880Y-53830630D01*
X130009880Y-53393130D01*
X130010933Y-53371689D01*
X130014083Y-53350454D01*
X130019299Y-53329630D01*
X130026531Y-53309418D01*
X130035710Y-53290012D01*
X130046746Y-53271599D01*
X130059534Y-53254356D01*
X130073950Y-53238450D01*
X130089856Y-53224034D01*
X130107099Y-53211246D01*
X130125512Y-53200210D01*
X130144918Y-53191031D01*
X130165130Y-53183799D01*
X130185954Y-53178583D01*
X130207189Y-53175433D01*
X130228630Y-53174380D01*
X130741130Y-53174380D01*
X130762571Y-53175433D01*
X130762571Y-53175433D01*
G37*
D19*
X130484880Y-53611880D03*
G04 #@! TD*
D18*
G04 #@! TO.C,R3*
G36*
X78692571Y-50774933D02*
X78713806Y-50778083D01*
X78734630Y-50783299D01*
X78754842Y-50790531D01*
X78774248Y-50799710D01*
X78792661Y-50810746D01*
X78809904Y-50823534D01*
X78825810Y-50837950D01*
X78840226Y-50853856D01*
X78853014Y-50871099D01*
X78864050Y-50889512D01*
X78873229Y-50908918D01*
X78880461Y-50929130D01*
X78885677Y-50949954D01*
X78888827Y-50971189D01*
X78889880Y-50992630D01*
X78889880Y-51430130D01*
X78888827Y-51451571D01*
X78885677Y-51472806D01*
X78880461Y-51493630D01*
X78873229Y-51513842D01*
X78864050Y-51533248D01*
X78853014Y-51551661D01*
X78840226Y-51568904D01*
X78825810Y-51584810D01*
X78809904Y-51599226D01*
X78792661Y-51612014D01*
X78774248Y-51623050D01*
X78754842Y-51632229D01*
X78734630Y-51639461D01*
X78713806Y-51644677D01*
X78692571Y-51647827D01*
X78671130Y-51648880D01*
X78158630Y-51648880D01*
X78137189Y-51647827D01*
X78115954Y-51644677D01*
X78095130Y-51639461D01*
X78074918Y-51632229D01*
X78055512Y-51623050D01*
X78037099Y-51612014D01*
X78019856Y-51599226D01*
X78003950Y-51584810D01*
X77989534Y-51568904D01*
X77976746Y-51551661D01*
X77965710Y-51533248D01*
X77956531Y-51513842D01*
X77949299Y-51493630D01*
X77944083Y-51472806D01*
X77940933Y-51451571D01*
X77939880Y-51430130D01*
X77939880Y-50992630D01*
X77940933Y-50971189D01*
X77944083Y-50949954D01*
X77949299Y-50929130D01*
X77956531Y-50908918D01*
X77965710Y-50889512D01*
X77976746Y-50871099D01*
X77989534Y-50853856D01*
X78003950Y-50837950D01*
X78019856Y-50823534D01*
X78037099Y-50810746D01*
X78055512Y-50799710D01*
X78074918Y-50790531D01*
X78095130Y-50783299D01*
X78115954Y-50778083D01*
X78137189Y-50774933D01*
X78158630Y-50773880D01*
X78671130Y-50773880D01*
X78692571Y-50774933D01*
X78692571Y-50774933D01*
G37*
D19*
X78414880Y-51211380D03*
D18*
G36*
X78692571Y-52349933D02*
X78713806Y-52353083D01*
X78734630Y-52358299D01*
X78754842Y-52365531D01*
X78774248Y-52374710D01*
X78792661Y-52385746D01*
X78809904Y-52398534D01*
X78825810Y-52412950D01*
X78840226Y-52428856D01*
X78853014Y-52446099D01*
X78864050Y-52464512D01*
X78873229Y-52483918D01*
X78880461Y-52504130D01*
X78885677Y-52524954D01*
X78888827Y-52546189D01*
X78889880Y-52567630D01*
X78889880Y-53005130D01*
X78888827Y-53026571D01*
X78885677Y-53047806D01*
X78880461Y-53068630D01*
X78873229Y-53088842D01*
X78864050Y-53108248D01*
X78853014Y-53126661D01*
X78840226Y-53143904D01*
X78825810Y-53159810D01*
X78809904Y-53174226D01*
X78792661Y-53187014D01*
X78774248Y-53198050D01*
X78754842Y-53207229D01*
X78734630Y-53214461D01*
X78713806Y-53219677D01*
X78692571Y-53222827D01*
X78671130Y-53223880D01*
X78158630Y-53223880D01*
X78137189Y-53222827D01*
X78115954Y-53219677D01*
X78095130Y-53214461D01*
X78074918Y-53207229D01*
X78055512Y-53198050D01*
X78037099Y-53187014D01*
X78019856Y-53174226D01*
X78003950Y-53159810D01*
X77989534Y-53143904D01*
X77976746Y-53126661D01*
X77965710Y-53108248D01*
X77956531Y-53088842D01*
X77949299Y-53068630D01*
X77944083Y-53047806D01*
X77940933Y-53026571D01*
X77939880Y-53005130D01*
X77939880Y-52567630D01*
X77940933Y-52546189D01*
X77944083Y-52524954D01*
X77949299Y-52504130D01*
X77956531Y-52483918D01*
X77965710Y-52464512D01*
X77976746Y-52446099D01*
X77989534Y-52428856D01*
X78003950Y-52412950D01*
X78019856Y-52398534D01*
X78037099Y-52385746D01*
X78055512Y-52374710D01*
X78074918Y-52365531D01*
X78095130Y-52358299D01*
X78115954Y-52353083D01*
X78137189Y-52349933D01*
X78158630Y-52348880D01*
X78671130Y-52348880D01*
X78692571Y-52349933D01*
X78692571Y-52349933D01*
G37*
D19*
X78414880Y-52786380D03*
G04 #@! TD*
D14*
G04 #@! TO.C,J20*
X172394880Y-60952380D03*
D13*
X174934880Y-60952380D03*
X177474880Y-60952380D03*
G04 #@! TD*
D16*
G04 #@! TO.C,JP1*
X174660560Y-67365880D03*
X174660560Y-65384680D03*
X172161200Y-67365880D03*
D17*
X167391080Y-70083680D03*
X179430680Y-70083680D03*
D16*
X172161200Y-65384680D03*
G04 #@! TD*
D21*
G04 #@! TO.C,D1*
X245711980Y-41216580D03*
X247489980Y-41216580D03*
G04 #@! TD*
D11*
G04 #@! TO.C,R4*
X249775980Y-41216580D03*
X251299980Y-41216580D03*
G04 #@! TD*
G04 #@! TO.C,R6*
X179252880Y-42156380D03*
X179252880Y-43680380D03*
G04 #@! TD*
G04 #@! TO.C,R7*
X128960880Y-43235880D03*
X128960880Y-41711880D03*
G04 #@! TD*
G04 #@! TO.C,R8*
X211637880Y-41394380D03*
X210113880Y-41394380D03*
G04 #@! TD*
G04 #@! TO.C,R9*
X194111880Y-41584880D03*
X195635880Y-41584880D03*
G04 #@! TD*
G04 #@! TO.C,R10*
X110672880Y-42156380D03*
X110672880Y-43680380D03*
G04 #@! TD*
G04 #@! TO.C,R11*
X76319380Y-44886880D03*
X76319380Y-43362880D03*
G04 #@! TD*
G04 #@! TO.C,R12*
X39679880Y-55173880D03*
X41203880Y-55173880D03*
G04 #@! TD*
D22*
G04 #@! TO.C,RN34*
X249012880Y-63113880D03*
D23*
X249012880Y-61843880D03*
X249012880Y-60573880D03*
X249012880Y-59303880D03*
X245812880Y-59303880D03*
X245812880Y-60573880D03*
X245812880Y-61843880D03*
D22*
X245812880Y-63113880D03*
G04 #@! TD*
D14*
G04 #@! TO.C,INPUT1*
X193810000Y-74270000D03*
D13*
X191270000Y-74270000D03*
X188730000Y-74270000D03*
X186190000Y-74270000D03*
X186190000Y-71730000D03*
X188730000Y-71730000D03*
X191270000Y-71730000D03*
X193810000Y-71730000D03*
G04 #@! TD*
G04 #@! TO.C,OUTPUT1*
X211810000Y-71730000D03*
X209270000Y-71730000D03*
X206730000Y-71730000D03*
X204190000Y-71730000D03*
X204190000Y-74270000D03*
X206730000Y-74270000D03*
X209270000Y-74270000D03*
D14*
X211810000Y-74270000D03*
G04 #@! TD*
G04 #@! TO.C,J4*
X171251880Y-73868280D03*
D13*
X173791880Y-73868280D03*
X176331880Y-73868280D03*
G04 #@! TD*
M02*
